<svg width="24" height="24" viewBox="0 0 24 24" fill="none" xmlns="http://www.w3.org/2000/svg">
<path d="M12 4.64001C14.2534 4.64001 15.7734 5.61335 16.64 6.42669L20.0267 3.12001C17.9467 1.18667 15.24 0 12 0C7.3067 0 3.25336 2.69334 1.28003 6.61335L5.16003 9.6267C6.13336 6.73335 8.8267 4.64001 12 4.64001V4.64001Z" fill="#EA4335"/>
<path d="M23.52 12.2668C23.52 11.2801 23.44 10.5601 23.2667 9.81348H12V14.2668H18.6133C18.48 15.3735 17.76 17.0402 16.16 18.1602L19.9467 21.0935C22.2133 19.0002 23.52 15.9202 23.52 12.2668V12.2668Z" fill="#4285F4"/>
<path d="M5.17333 14.3733C4.92 13.6266 4.77333 12.8266 4.77333 12C4.77333 11.1733 4.92 10.3733 5.16 9.62662L1.28 6.61328C0.466667 8.23995 0 10.0666 0 12C0 13.9333 0.466667 15.76 1.28 17.3866L5.17333 14.3733V14.3733Z" fill="#FBBC05"/>
<path d="M12 24C15.24 24 17.96 22.9333 19.9467 21.0933L16.16 18.16C15.1467 18.8666 13.7867 19.36 12 19.36C8.82667 19.36 6.13334 17.2666 5.17334 14.3733L1.29333 17.3866C3.26667 21.3066 7.30667 24 12 24V24Z" fill="#34A853"/>
</svg>
