<svg width="32" height="32" viewBox="0 0 32 32" fill="none" xmlns="http://www.w3.org/2000/svg">
<path d="M19.8571 14.7912C19.8571 16.8721 18.1302 18.5589 16 18.5589C13.8698 18.5589 12.1429 16.8721 12.1429 14.7912C12.1429 12.7104 13.8698 11.0236 16 11.0236C18.1302 11.0236 19.8571 12.7104 19.8571 14.7912Z" fill="black"/>
<path fill-rule="evenodd" clip-rule="evenodd" d="M5 0C2.23859 0 0 2.23857 0 5V27C0 29.7614 2.23859 32 5 32H27C29.7614 32 32 29.7614 32 27V5C32 2.23857 29.7614 0 27 0H5ZM25 14.7912C25 21.2281 18.1293 25.0456 16.3942 25.907C16.1445 26.031 15.8555 26.031 15.6058 25.907C13.8707 25.0456 7 21.2281 7 14.7912C7 9.93597 11.0294 6 16 6C20.9706 6 25 9.93597 25 14.7912Z" fill="black"/>
</svg>
