<svg width="32" height="32" viewBox="0 0 32 32" fill="none" xmlns="http://www.w3.org/2000/svg">
<path fill-rule="evenodd" clip-rule="evenodd" d="M5 0C2.23859 0 0 2.23857 0 5V27C0 29.7614 2.23859 32 5 32H27C29.7614 32 32 29.7614 32 27V5C32 2.23857 29.7614 0 27 0H5ZM7 14C7 13.4954 7 13.0358 7.00497 12.6163L14.928 17.6467C15.5823 18.0622 16.4177 18.0621 17.072 17.6467L24.995 12.6163C24.9979 12.8613 24.9991 13.12 24.9996 13.3934C25 13.588 25 13.7901 25 14V18C25 20.8284 25 22.2426 24.1213 23.1213C23.2426 24 21.8284 24 19 24H13C10.1716 24 8.75735 24 7.87869 23.1213C7 22.2426 7 20.8284 7 18V14ZM7.53601 10.5843C7.41528 10.5077 7.28439 10.4601 7.15155 10.4398C7.27225 9.76312 7.48911 9.26826 7.87869 8.87868C8.75735 8 10.1716 8 13 8H19C21.8284 8 23.2426 8 24.1213 8.87868C24.5109 9.26826 24.7278 9.76312 24.8484 10.4398C24.7156 10.4601 24.5847 10.5077 24.464 10.5843L16 15.9583L7.53601 10.5843Z" fill="black"/>
</svg>
