<svg width="32" height="32" viewBox="0 0 32 32" fill="none" xmlns="http://www.w3.org/2000/svg">
<path fill-rule="evenodd" clip-rule="evenodd" d="M5 0C2.23859 0 0 2.23857 0 5V27C0 29.7614 2.23859 32 5 32H27C29.7614 32 32 29.7614 32 27V5C32 2.23857 29.7614 0 27 0H5ZM10.5561 6.70711L9.67963 7.58353C7.56827 9.69489 7.33072 13.0375 9.12225 15.4262L10.3444 17.0556C11.652 18.7992 13.2008 20.348 14.9444 21.6556L16.5738 22.8777C18.9626 24.6693 22.3051 24.4317 24.4165 22.3204L25.2929 21.444C25.6834 21.0534 25.6834 20.4203 25.2929 20.0297L22.4966 17.2334C22.106 16.8429 21.4729 16.8429 21.0824 17.2334L19.1584 19.1574C18.8438 19.472 18.3632 19.55 17.9652 19.351C15.6646 18.2007 13.7993 16.3353 12.649 14.0348C12.45 13.6368 12.528 13.1562 12.8426 12.8416L14.7666 10.9176C15.1571 10.5271 15.1571 9.89395 14.7666 9.50342L11.9703 6.70711C11.5797 6.31659 10.9466 6.31659 10.5561 6.70711Z" fill="black"/>
</svg>
